# Blender v2.78 (sub 0) OBJ File: '17.blend'
# www.blender.org
mtllib Mug_01.mtl
o Circle_Circle.009
v 0.117460 9.974511 -4.605263
v -3.139021 9.974511 -3.256384
v -4.487901 9.974511 0.000099
v -3.139021 9.974511 3.256581
v 0.117461 9.974511 4.605460
v 3.373943 9.974511 3.256580
v 4.722822 9.974511 0.000098
v 3.373943 9.974511 -3.256384
v 0.117460 9.974511 -3.515730
v -2.368606 9.974511 -2.485968
v -3.398368 9.974511 0.000098
v -2.368606 9.974511 2.486164
v 0.117461 9.974511 3.515927
v 2.603527 9.974511 2.486164
v 3.633289 9.974511 0.000098
v 2.603527 9.974511 -2.485967
v 0.117460 1.578889 -3.515730
v -2.368606 1.578889 -2.485968
v -3.398368 1.578889 0.000098
v -2.368606 1.578889 2.486164
v 0.117461 1.578889 3.515927
v 2.603527 1.578889 2.486164
v 3.633289 1.578889 0.000098
v 2.603527 1.578889 -2.485967
v 0.117461 1.578889 0.000098
v 0.117461 0.068612 0.000098
v 0.117460 0.478369 -4.605263
v 0.117460 0.068612 -4.161745
v -2.825408 0.068612 -2.942770
v -3.139021 0.478369 -3.256384
v -4.044383 0.068612 0.000099
v -4.487901 0.478369 0.000099
v -2.825408 0.068612 2.942966
v -3.139021 0.478369 3.256581
v 0.117461 0.068612 4.161942
v 0.117461 0.478369 4.605460
v 3.060329 0.068612 2.942966
v 3.373943 0.478369 3.256580
v 4.279304 0.068612 0.000098
v 4.722822 0.478369 0.000098
v 3.060329 0.068612 -2.942769
v 3.373943 0.478369 -3.256384
v 4.234811 8.800708 -0.614927
v 4.234811 3.320655 -0.614927
v 6.172303 4.123190 -0.614927
v 6.974837 6.060681 -0.614927
v 6.880147 8.809520 -0.614927
v 4.221471 7.933635 -0.589158
v 4.221471 4.187727 -0.589158
v 5.545850 4.736304 -0.589158
v 6.094423 6.060681 -0.589158
v 6.053395 7.977657 -0.589158
v 6.172303 4.123190 0.624075
v 4.234811 3.320655 0.624075
v 6.974837 6.060681 0.624075
v 6.880147 8.809520 0.624075
v 4.234811 8.800708 0.624075
v 5.545850 4.736304 0.598306
v 4.221471 4.187727 0.598306
v 6.094423 6.060681 0.598306
v 6.053395 7.977657 0.598306
v 4.221471 7.933635 0.598306
v 0.117460 4.315682 -4.605263
v -3.139022 4.315690 -3.256384
v 3.373943 4.315682 -3.256384
v -4.487901 4.315690 0.000099
v -3.139022 4.315690 3.256581
v 0.117461 4.315690 4.605460
v 3.373943 4.315690 3.256580
v 4.722822 4.315690 0.000098
v -3.139022 6.221194 -3.256384
v -4.487901 6.221194 0.000099
v -3.139022 6.221194 3.256581
v 0.117461 6.221194 4.605460
v 3.373943 6.221194 3.256580
v 4.722822 6.221194 0.000098
v 0.117460 6.221194 -4.605263
v 3.373943 6.221194 -3.256384
vn 0.0000 -1.0000 0.0000
vn 0.0000 1.0000 0.0000
vn 0.9239 0.0000 0.3827
vn -0.3827 0.0000 0.9239
vn -0.9239 0.0000 -0.3827
vn 0.3827 0.0000 -0.9239
vn 0.9239 0.0000 -0.3827
vn 0.3827 0.0000 0.9239
vn -0.9239 0.0000 0.3827
vn -0.2706 -0.7071 -0.6533
vn -0.6533 -0.7071 -0.2706
vn -0.6533 -0.7071 0.2706
vn -0.2706 -0.7071 0.6533
vn 0.2706 -0.7071 0.6533
vn 0.6533 -0.7071 0.2706
vn 0.6533 -0.7071 -0.2706
vn 0.2706 -0.7071 -0.6533
vn -0.3827 0.0000 -0.9239
vn 0.0004 -0.0305 -0.9995
vn -0.0293 0.0121 -0.9995
vn -0.0298 -0.0009 -0.9996
vn -0.0122 0.0295 -0.9995
vn 0.0004 -0.0305 0.9995
vn -0.0293 0.0121 0.9995
vn -0.0298 -0.0009 0.9996
vn -0.0122 0.0295 0.9995
vn -0.9998 -0.0214 0.0000
vn -0.0033 1.0000 0.0000
vn 0.3827 -0.9239 0.0000
vn 0.0240 -0.9997 0.0000
vn -0.3827 0.9239 0.0000
vn 0.9239 -0.3827 0.0000
vn -0.9999 0.0154 0.0000
vn -0.9239 0.3827 0.0000
vn -0.9999 -0.0154 0.0000
vn 0.9994 0.0344 0.0000
usemtl 009688
s off
f 41//1 39//1 26//1
f 37//1 35//1 26//1
f 33//1 31//1 26//1
f 28//1 41//1 26//1
f 29//1 28//1 26//1
f 39//1 37//1 26//1
f 35//1 33//1 26//1
f 31//1 29//1 26//1
f 1//2 2//2 10//2 9//2
f 8//2 1//2 9//2 16//2
f 6//2 7//2 15//2 14//2
f 4//2 5//2 13//2 12//2
f 2//2 3//2 11//2 10//2
f 7//2 8//2 16//2 15//2
f 5//2 6//2 14//2 13//2
f 3//2 4//2 12//2 11//2
f 75//3 76//3 7//3 6//3
f 73//4 74//4 5//4 4//4
f 71//5 72//5 3//5 2//5
f 78//6 77//6 1//6 8//6
f 76//7 78//7 8//7 7//7
f 74//8 75//8 6//8 5//8
f 72//9 73//9 4//9 3//9
f 30//10 27//10 28//10 29//10
f 32//11 30//11 29//11 31//11
f 34//12 32//12 31//12 33//12
f 36//13 34//13 33//13 35//13
f 38//14 36//14 35//14 37//14
f 40//15 38//15 37//15 39//15
f 42//16 40//16 39//16 41//16
f 27//17 42//17 41//17 28//17
f 77//18 71//18 2//18 1//18
f 47//19 52//19 48//19 43//19
f 45//20 50//20 51//20 46//20
f 46//21 51//21 52//21 47//21
f 44//22 49//22 50//22 45//22
f 56//23 57//23 62//23 61//23
f 53//24 55//24 60//24 58//24
f 55//25 56//25 61//25 60//25
f 54//26 53//26 58//26 59//26
f 52//27 51//27 60//27 61//27
f 47//28 43//28 57//28 56//28
f 44//29 45//29 53//29 54//29
f 48//30 52//30 61//30 62//30
f 50//31 49//31 59//31 58//31
f 45//32 46//32 55//32 53//32
f 43//33 48//33 62//33 57//33
f 51//34 50//34 58//34 60//34
f 49//35 44//35 54//35 59//35
f 46//36 47//36 56//36 55//36
f 27//18 30//18 64//18 63//18
f 32//9 34//9 67//9 66//9
f 36//8 38//8 69//8 68//8
f 40//7 42//7 65//7 70//7
f 42//6 27//6 63//6 65//6
f 30//5 32//5 66//5 64//5
f 34//4 36//4 68//4 67//4
f 38//3 40//3 70//3 69//3
usemtl FF5722
f 64//18 77//18 63//18
f 67//9 72//9 66//9
f 69//8 74//8 68//8
f 63//6 77//6 78//6
f 66//5 72//5 71//5
f 68//4 74//4 73//4
f 70//3 76//3 75//3
f 70//7 65//7 76//7
usemtl F44336
f 65//7 78//7 76//7
f 63//6 78//6 65//6
f 66//5 71//5 64//5
f 68//4 73//4 67//4
f 70//3 75//3 69//3
f 64//18 71//18 77//18
f 67//9 73//9 72//9
f 69//8 75//8 74//8
usemtl FFFFFF
f 15//9 16//9 24//9 23//9
f 13//18 14//18 22//18 21//18
f 11//7 12//7 20//7 19//7
f 9//8 10//8 18//8 17//8
f 16//4 9//4 17//4 24//4
f 14//5 15//5 23//5 22//5
f 12//6 13//6 21//6 20//6
f 10//3 11//3 19//3 18//3
f 18//2 19//2 25//2
f 23//2 24//2 25//2
f 21//2 22//2 25//2
f 19//2 20//2 25//2
f 17//2 18//2 25//2
f 24//2 17//2 25//2
f 22//2 23//2 25//2
f 20//2 21//2 25//2
